Coordinates
version=1
nRows=19
nColumns=33
inDegrees=yes

Units are S.I. units (second, meters, Newtons, ...)
Angles are in degrees.

endheader
time	ground_thorax_rot_x	ground_thorax_rot_y	ground_thorax_rot_z	ground_thorax_tx	ground_thorax_ty	ground_thorax_tz	clav_prot_r	clav_elev_r	scapula_abduction_r	scapula_elevation_r	scapula_upward_rot_r	scapula_winging_r	shoulder_elv_r	plane_of_elev_r	axial_rot_r	elbow_flexion_r	pro_sup_r	wrist_flex_r	wrist_dev_r	clav_prot_l	clav_elev_l	scapula_abduction_l	scapula_elevation_l	scapula_upward_rot_l	scapula_winging_l	shoulder_elv_l	plane_of_elev_l	axial_rot_l	elbow_flexion_l	pro_sup_l	wrist_flex_l	wrist_dev_l
      8.19000000	     38.06276525	     10.76188567	      9.76796713	    -75.60429990	    777.98429676	     22.38011727	     10.28242479	     36.93418739	     45.00000000	     34.07195280	     -3.67064497	  -2612.36445071	  -3183.16391296	     27.97864598	     60.09580767	   1447.61954668	      1.13291458	     12.60428304	     14.94216420	      4.88202870	    -45.00000000	    -45.00000000	     45.00000000	    -24.20025076	    443.83489091	   -102.84277236	    138.97863044	    155.11796258	   -351.01898895	     24.31068956	      8.62519303	    -16.97098765
      8.20000000	     38.19033819	     10.28622536	      9.76438686	    -77.10330856	    777.51758962	     22.63441941	      9.97888427	     37.18043349	     45.00000000	     34.12350774	     -3.31947922	  -2612.64947344	  -3183.35894264	     28.01586365	     62.14639119	   1447.41188831	      3.16535325	     14.05195439	     14.07967063	      4.61663554	    -45.00000000	    -45.00000000	     45.00000000	    -23.54027291	    444.15265639	   -103.07852079	    139.03697004	    155.09525681	   -351.31774639	     24.47239187	      8.59918514	    -16.97853201
      8.21000000	     38.26444124	     10.28564885	      9.85388873	    -78.31826147	    777.19887568	     22.77522166	      9.99671798	     37.16554327	     45.00000000	     34.13007161	     -3.10433216	  -2612.93214543	  -3183.13265149	     27.83158040	     62.84758544	   1447.65825867	      5.70135135	     14.47960584	     13.67081462	      4.65338100	    -45.00000000	    -45.00000000	     45.00000000	    -23.84789174	    444.14962522	   -102.87016630	    139.03300978	    154.89246559	   -351.11256250	     24.57816501	      8.57782623	    -16.99793154
      8.22000000	     38.32623779	     10.27995715	     10.04755541	    -79.32653587	    776.99749346	     22.82921743	      9.96288905	     37.32778016	     45.00000000	     34.30541384	     -3.49769388	  -2613.01991244	  -3183.20773756	     27.93719205	     63.17876228	   1447.60247507	      8.44999963	     15.34880205	     13.14688756	      4.74294564	    -45.00000000	    -45.00000000	     45.00000000	    -23.76261597	    444.41072227	   -103.06209304	    139.03485151	    155.07651769	   -351.24344621	     24.62831579	      8.50278339	    -16.99555385
      8.23000000	     38.37056939	     10.27624702	     10.10158334	    -80.20292108	    776.88026876	     22.82084627	     10.12054343	     37.35418913	     45.00000000	     34.34094381	     -3.47924176	  -2613.09440672	  -3183.04541963	     27.89943629	     62.95765087	   1447.85203754	     11.04852470	     15.49354332	     12.87181032	      4.73512812	    -45.00000000	    -45.00000000	     45.00000000	    -24.14567734	    444.38055395	   -102.80267891	    139.02346783	    154.96197618	   -351.06862963	     24.68119333	      8.56578064	    -17.04650491
      8.24000000	     38.45889156	     10.26708259	     10.22101887	    -81.02785820	    776.81257589	     22.77532005	     10.07682871	     37.52350776	     45.00000000	     34.51489208	     -3.86484379	  -2613.09933838	  -3183.05900130	     28.09413494	     62.87227161	   1447.85526785	     13.43380741	     16.19698193	     12.49564415	      4.83247127	    -45.00000000	    -45.00000000	     45.00000000	    -23.96678751	    444.69806854	   -103.09626688	    139.00340413	    155.22900701	   -351.19130167	     24.67730786	      8.40214411	    -16.99168248
      8.25000000	     38.48548395	     10.30792639	     10.15667734	    -81.87924480	    776.75965454	     22.71799360	     10.26718833	     37.53000410	     45.00000000	     34.54341258	     -3.82690348	  -2613.17933865	  -3182.87682907	     28.02192963	     62.55156438	   1448.09539872	     15.74647960	     16.16135598	     12.19485197	      4.75383780	    -45.00000000	    -45.00000000	     45.00000000	    -24.38420911	    444.54216027	   -102.67394301	    139.00163707	    155.01747599	   -350.92253903	     24.71307569	      8.59998452	    -17.12887227
      8.26000000	     38.57640780	     10.31720074	     10.33640850	    -82.69804616	    776.75082332	     22.62904807	     10.17727842	     37.73955459	     45.00000000	     34.76587048	     -4.25067142	  -2613.14174957	  -3182.91585868	     28.22368347	     62.50743502	   1448.11459542	     17.82385271	     16.85004064	     11.97798629	      4.90763178	    -45.00000000	    -45.00000000	     45.00000000	    -24.02499912	    445.06848299	   -103.19477231	    138.94982232	    155.43185244	   -351.16993256	     24.66873340	      8.24090124	    -16.94684470
      8.27000000	     38.52169158	     10.47401719	     10.44797692	    -83.51487642	    776.77550443	     22.51726845	     10.37033362	     37.68028696	     45.00000000	     34.83740170	     -4.45514166	  -2613.16450947	  -3182.80501857	     28.08515767	     62.03176953	   1448.43348522	     20.18415213	     16.84997155	     11.73969787	      4.91611564	    -45.00000000	    -45.00000000	     45.00000000	    -24.46561398	    444.95217995	   -102.85852427	    139.01116347	    155.32275300	   -350.99869727	     24.68004813	      8.37753724	    -17.04244703
      8.28000000	     38.62147073	     10.32621407	     10.18070419	    -84.32890526	    776.83542680	     22.38369458	     10.40468153	     37.98024555	     45.00000000	     34.96963506	     -4.51025658	  -2613.23982575	  -3182.82673728	     28.37552625	     61.78169819	   1448.45007973	     21.68430925	     17.04593256	     11.43518968	      4.89679391	    -45.00000000	    -45.00000000	     45.00000000	    -24.49386432	    445.02772550	   -102.64982667	    138.82872413	    155.27141501	   -350.92226252	     24.67153107	      8.44247058	    -17.10651789
      8.29000000	     38.70737137	     10.48782281	     10.45911567	    -85.15881278	    776.92618892	     22.23278536	     10.41841903	     37.96058846	     45.00000000	     35.10978181	     -4.51307236	  -2613.16337476	  -3182.61906720	     28.15030162	     61.60362310	   1448.72034407	     22.93167952	     17.14053864	     11.48750792	      4.87727731	    -45.00000000	    -45.00000000	     45.00000000	    -24.49022776	    445.23116453	   -102.99887530	    139.12118710	    155.49938768	   -350.84839414	     24.62665184	      8.29090838	    -17.06948542
      8.30000000	     38.66341875	     10.59072952	     10.39130984	    -86.01851507	    777.04670893	     22.06677599	     10.51131817	     38.04232719	     45.00000000	     35.22312195	     -4.85754970	  -2613.26577548	  -3182.66291436	     28.26641334	     61.35274927	   1448.78572094	     24.19181737	     17.29356881	     11.21366288	      4.95929784	    -45.00000000	    -45.00000000	     45.00000000	    -24.68122426	    445.27793136	   -102.64734630	    138.94865377	    155.48316057	   -350.81814205	     24.59938091	      8.33713456	    -17.10519487
      8.31000000	     38.76237546	     10.47964079	     10.16728772	    -86.91016692	    777.19695681	     21.88706637	     10.55157247	     38.32883570	     45.00000000	     35.39147512	     -4.90265587	  -2613.29675869	  -3182.65231533	     28.44719344	     61.19471483	   1448.87558299	     25.03455783	     17.34797832	     11.17027317	      4.96475182	    -45.00000000	    -45.00000000	     45.00000000	    -24.65311047	    445.45934425	   -102.55077811	    138.75330864	    155.50739628	   -350.72723310	     24.55628489	      8.28833450	    -17.11132544
      8.32000000	     38.81784258	     10.62772450	     10.28485051	    -87.84117680	    777.37850575	     21.69333345	     10.56916611	     38.34497482	     45.00000000	     35.53067562	     -4.91925244	  -2613.32284957	  -3182.53161870	     28.31934998	     61.02983120	   1448.98610953	     25.67358032	     17.45991464	     11.05167094	      4.92873432	    -45.00000000	    -45.00000000	     45.00000000	    -24.68703252	    445.52797667	   -102.60611120	    138.96006243	    155.61125890	   -350.60893558	     24.50592526	      8.26810062	    -17.15325038
      8.33000000	     38.89297637	     10.51248612	     10.07034656	    -88.81394520	    777.59291834	     21.48604929	     10.61511617	     38.57858447	     45.00000000	     35.67800830	     -5.07775733	  -2613.40962267	  -3182.54369413	     28.61620844	     60.92745599	   1449.06802567	     26.18126245	     17.46452889	     11.03268836	      5.00874068	    -45.00000000	    -45.00000000	     45.00000000	    -24.78543028	    445.80081643	   -102.41467495	    138.63601444	    155.61161093	   -350.48987919	     24.44286904	      8.19757335	    -17.15079020
      8.34000000	     38.93711878	     10.77995092	     10.27150336	    -89.83412428	    777.84124898	     21.26585823	     10.63183934	     38.61987827	     45.00000000	     35.86772256	     -5.12238147	  -2613.37539146	  -3182.40506134	     28.29355423	     60.74931244	   1449.16439455	     26.53580916	     17.58970571	     10.95914070	      4.95140858	    -45.00000000	    -45.00000000	     45.00000000	    -24.79547548	    445.76824805	   -102.50205807	    138.99233211	    155.76575552	   -350.41672833	     24.37369536	      8.19070845	    -17.19358574
      8.35000000	     38.95658953	     10.53028805	      9.92520203	    -90.90461315	    778.12430879	     21.03424341	     10.69409847	     38.74976659	     45.00000000	     35.83870694	     -5.26724675	  -2613.52949987	  -3182.42808566	     28.83737020	     60.66128588	   1449.19632573	     26.78978948	     17.52847098	     10.94976400	      5.06845801	    -45.00000000	    -45.00000000	     45.00000000	    -24.90024597	    446.19006709	   -102.17905475	    138.44223487	    155.69961250	   -350.28422701	     24.28697017	      8.10769757	    -17.17555927
      8.36000000	     38.90084516	     10.90122180	     10.21603879	    -92.03136738	    778.44288962	     20.79263028	     10.61880323	     38.52635490	     45.00000000	     36.00481681	     -5.40514144	  -2613.42247982	  -3182.22506450	     28.33288225	     60.59705573	   1449.39418999	     26.95334194	     17.70043744	     10.93855505	      4.99758148	    -45.00000000	    -45.00000000	     45.00000000	    -24.80401912	    446.11686439	   -102.19219967	    138.93098607	    155.79426880	   -350.22084051	     24.19266338	      8.13284031	    -17.23604622
      8.37000000	     38.94469320	     10.66278648	      9.86231442	    -93.21863228	    778.79692632	     20.54294599	     10.69102434	     38.90822084	     45.00000000	     36.05579347	     -5.42080480	  -2613.68759588	  -3182.36245003	     28.86297535	     60.44250552	   1449.32913020	     27.02831344	     17.60069947	     10.86161225	      5.08353398	    -45.00000000	    -45.00000000	     45.00000000	    -24.84960058	    446.57347811	   -101.94000782	    138.36372982	    155.69668125	   -350.17207815	     24.07497949	      7.99982302	    -17.17101170
